Coordinates
version=1
nRows=11
nColumns=42
inDegrees=yes

Units are S.I. units (second, meters, Newtons, ...)
If the header above contains a line with 'inDegrees', this indicates whether rotational values are in degrees (yes) or radians (no).

endheader
time	pelvis_tilt	pelvis_list	pelvis_rotation	pelvis_tx	pelvis_ty	pelvis_tz	hip_flexion_r	hip_adduction_r	hip_rotation_r	knee_angle_r	knee_adduction_r	knee_angle_r_beta	ankle_angle_r	subtalar_angle_r	mtp_angle_r	hip_flexion_l	hip_adduction_l	hip_rotation_l	knee_angle_l	knee_adduction_l	knee_angle_l_beta	ankle_angle_l	subtalar_angle_l	mtp_angle_l	lumbar_extension	lumbar_bending	lumbar_rotation	arm_flex_r	arm_add_r	arm_rot_r	elbow_flex_r	pro_sup_r	wrist_flex_r	wrist_dev_r	arm_flex_l	arm_add_l	arm_rot_l	elbow_flex_l	pro_sup_l	wrist_flex_l	wrist_dev_l
      1.27000000	      1.68123967	      6.32549279	      5.89075480	     -1.04247160	      0.98747568	      0.31896963	     15.70898052	     -6.51144711	    -25.96399224	     13.58476708	     -3.62791456	      0.23709891	     -1.48415949	     14.59589065	     -7.89119146	    -17.55548043	      4.29103464	     -2.68507941	     10.30522479	     -1.32445799	      0.17986010	      7.98936543	     14.06744295	     -7.89119146	    -21.67596570	     -7.91236451	     -8.99072044	    -11.28162199	     -9.61010009	     15.90737780	     36.03420652	     90.00000001	      0.00000000	      0.00000000	     16.90446873	    -19.13954637	      9.64710914	     48.23016337	     90.00000001	      0.00000000	      0.00000000
      1.28000000	      1.75183310	      6.15127947	      5.95713404	     -1.03489125	      0.98930135	      0.32100585	     14.82651471	     -6.05347308	    -26.39290337	     12.90847221	     -3.62907195	      0.22529534	     -1.37806945	     15.30443927	     -7.88129111	    -17.07180073	      3.60040500	     -2.70412442	     12.15761342	     -0.84153121	      0.21219038	      7.11318348	     12.80349854	     -7.88129111	    -21.81840921	     -7.74794855	     -8.91264303	    -10.73609704	     -9.46051909	     15.55889908	     35.81732523	     90.00000001	      0.00000000	      0.00000000	     16.48107247	    -19.23588383	     10.16310018	     47.42193392	     90.00000001	      0.00000000	      0.00000000
      1.29000000	      1.77703848	      6.32917357	      6.01782941	     -1.02751929	      0.99105369	      0.32279791	     14.02847711	     -6.10749001	    -26.50511517	     12.49059387	     -3.40576218	      0.21800199	     -0.94689197	     15.59553553	     -7.87637963	    -16.53867538	      3.33478087	     -2.53734448	     13.98529952	     -0.41619029	      0.24408952	      5.89612971	     12.23703109	     -7.87637963	    -21.97263853	     -7.96396211	     -8.99320294	    -10.20018229	     -9.34020326	     15.47953779	     35.86752502	     90.00000001	      0.00000000	      0.00000000	     15.96504455	    -19.36027399	     10.34445145	     46.81721182	     90.00000001	      0.00000000	      0.00000000
      1.30000000	      1.84515645	      6.34482359	      6.12291101	     -1.02017487	      0.99281401	      0.32461133	     13.13028056	     -5.93262076	    -26.86339684	     11.88197805	     -3.27471257	      0.20737964	     -0.69098428	     16.13157348	     -7.86896032	    -15.82584170	      2.82287024	     -2.47806953	     16.21863343	      0.07499444	      0.28306855	      4.75668186	     11.21516819	     -7.86896032	    -22.13319556	     -7.98879939	     -9.02240134	     -9.60956070	     -9.26197013	     15.40219995	     35.81023711	     90.00000001	      0.00000000	      0.00000000	     15.44625786	    -19.49291914	     10.60926725	     46.20953117	     90.00000001	      0.00000000	      0.00000000
      1.31000000	      1.96930634	      6.60562088	      6.06795623	     -1.01299839	      0.99460148	      0.32660859	     12.26840659	     -6.04512018	    -26.92068936	     11.51044445	     -3.06256663	      0.20089515	     -0.35702644	     16.43219089	     -7.86467463	    -15.22778759	      2.56415485	     -2.16344670	     18.30446353	      0.72896322	      0.31947316	      3.62392062	     10.73919466	     -7.86467463	    -22.40406602	     -8.33926383	     -8.98560556	     -9.02354465	     -9.19233401	     15.37218462	     35.94420926	     90.00000001	      0.00000000	      0.00000000	     14.91035756	    -19.63645962	     10.69982682	     45.73292314	     90.00000001	      0.00000000	      0.00000000
      1.32000000	      2.04699601	      6.47529249	      6.26259504	     -1.00572927	      0.99610940	      0.32835963	     11.32176887	     -5.69786272	    -27.47441428	     10.76968015	     -2.96846928	      0.18796638	     -0.25014909	     17.23123967	     -7.85383352	    -14.19315118	      1.80314799	     -2.10390842	     21.11240482	      1.30131641	      0.36848098	      2.48113782	      9.36385114	     -7.85383352	    -22.51314934	     -8.18772363	     -9.01679236	     -8.38695239	     -9.17244232	     15.45038446	     35.92889828	     90.00000001	      0.00000000	      0.00000000	     14.28796680	    -19.81320353	     10.84038121	     45.24996316	     90.00000001	      0.00000000	      0.00000000
      1.33000000	      2.18645364	      6.68149009	      6.32558133	     -0.99868052	      0.99768884	      0.32998737	     10.35265506	     -5.80644101	    -27.69857336	     10.25724060	     -2.65848712	      0.17902262	      0.16334476	     17.60864727	     -7.84717069	    -13.30376834	      1.51229700	     -1.87877594	     23.64858236	      1.75887915	      0.41274563	      1.24923291	      8.65901494	     -7.84717069	    -22.77321125	     -8.41551699	     -9.02258145	     -7.75447781	     -9.18073398	     15.50993356	     36.06995817	     90.00000001	      0.00000000	      0.00000000	     13.70960613	    -19.96533340	     10.82644563	     44.87403572	     90.00000001	      0.00000000	      0.00000000
      1.34000000	      2.44896390	      7.04004530	      6.10610893	     -0.99177143	      0.99930266	      0.33212676	      9.43603730	     -6.03315820	    -27.66145296	     10.02451130	     -2.42341677	      0.17496073	      0.43235282	     17.83037662	     -7.84318204	    -12.62201508	      1.33437564	     -1.47960692	     25.98378972	      2.55028788	      0.45350268	      0.33330059	      8.33152629	     -7.84318204	    -23.18074976	     -8.91126921	     -8.76261630	     -7.10392334	     -9.17237602	     15.55016507	     36.27049164	     90.00000001	      0.00000000	      0.00000000	     13.19487163	    -20.14276389	     10.73876009	     44.58381391	     90.00000001	      0.00000000	      0.00000000
      1.35000000	      2.38344568	      6.79544673	      6.33868069	     -0.98505306	      1.00014735	      0.33374266	      8.71414401	     -5.56739745	    -28.14588003	      9.31797244	     -2.32119245	      0.16262930	      0.54272521	     18.45220289	     -7.83272213	    -10.99631813	      0.45082490	     -1.34811328	     29.31272309	      3.09699690	      0.51160353	     -0.66102235	      6.82529580	     -7.83272213	    -23.11697350	     -8.64863241	     -8.78038117	     -6.35797830	     -9.30328619	     15.95697199	     36.35540091	     90.00000001	      0.00000000	      0.00000000	     12.42123386	    -20.25869863	     10.41363707	     44.34015733	     90.00000001	      0.00000000	      0.00000000
      1.36000000	      2.68541073	      7.15166470	      6.12677710	     -0.97840267	      1.00158383	      0.33564680	      7.74860876	     -5.85101694	    -28.06490025	      9.09226799	     -1.97343255	      0.15869001	      0.91411991	     18.65208912	     -7.82844178	    -10.16733371	      0.33908006	     -0.98992399	     31.74388649	      3.71630364	      0.55403534	     -1.43946392	      6.48064336	     -7.82844178	    -23.56236104	     -9.11735894	     -8.50199791	     -5.62901005	     -9.34280303	     16.02027047	     36.59095729	     90.00000001	      0.00000000	      0.00000000	     11.90307389	    -20.43939520	     10.24027201	     44.11055669	     90.00000001	      0.00000000	      0.00000000
      1.37000000	      2.58473578	      6.91836321	      6.26066936	     -0.97195445	      1.00203701	      0.33737145	      7.19587973	     -5.36971422	    -28.41794102	      8.54834376	     -1.96411681	      0.14919674	      1.07085109	     19.11158201	     -7.81784536	     -8.40718484	     -0.51337104	     -0.68585723	     34.95477015	      4.33983161	      0.61007583	     -2.12594223	      5.02211412	     -7.81784536	    -23.44853288	     -8.92828873	     -8.38134323	     -4.85780201	     -9.54627585	     16.58913084	     36.70980910	     90.00000001	      0.00000000	      0.00000000	     11.09473146	    -20.49579430	      9.58962782	     43.99540586	     90.00000001	      0.00000000	      0.00000000
